<svg width="15" height="31" viewBox="0 0 15 31" fill="none" xmlns="http://www.w3.org/2000/svg">
<path d="M7.28379 30.4476C4.93135 30.4476 3.15075 29.8341 1.93976 28.607C0.729875 27.3798 0.125488 25.5732 0.125488 23.1871V13.1655C0.125488 12.8417 0.21859 12.586 0.40585 12.3985C0.59422 12.1941 0.849862 12.0918 1.17277 12.0918C1.48002 12.0918 1.72672 12.1941 1.91509 12.3985C2.10235 12.586 2.1954 12.8417 2.1954 13.1655V23.3661C2.1954 25.1216 2.62147 26.4424 3.47366 27.3287C4.34374 28.2149 5.61306 28.6581 7.28379 28.6581C8.9534 28.6581 10.2148 28.2149 11.067 27.3287C11.9192 26.4424 12.3453 25.1216 12.3453 23.3661V13.1655C12.3453 12.8417 12.4395 12.586 12.6267 12.3985C12.8308 12.1941 13.0864 12.0918 13.3937 12.0918C13.7178 12.0918 13.9734 12.1941 14.1606 12.3985C14.3479 12.586 14.4421 12.8417 14.4421 13.1655V23.1871C14.4421 25.5561 13.8276 27.3628 12.6009 28.607C11.3911 29.8341 9.61834 30.4476 7.28379 30.4476Z" fill="#C679F6"/>
<path d="M14.1426 11.881L10.3292 10.5733C9.90305 10.4271 9.46015 10.8611 9.50275 11.3098C9.72929 13.7373 8.9612 19.1494 8.42075 22.6602C8.35348 23.0943 8.87259 23.3422 9.15407 23.0052C12.4472 19.0655 14.0563 14.3691 14.4308 12.3601C14.47 12.1504 14.3444 11.9501 14.1426 11.881Z" fill="#A141DD"/>
<path d="M0.0567843 12.5118C1.61091 20.8439 5.50847 25.8512 8.1906 28.0987C8.55051 28.3998 8.97768 27.9907 8.76021 27.5754C6.4851 23.2367 4.05078 15.5214 5.14067 11.0636C5.23489 10.6787 4.85142 10.2946 4.48135 10.4356L0.337088 12.0123C0.136386 12.0888 0.0175104 12.3003 0.0567843 12.5118Z" fill="#A141DD"/>
<path d="M7.17781 8.3561C9.38237 8.3561 11.1696 6.56639 11.1696 4.35871C11.1696 2.15099 9.38237 0.361328 7.17781 0.361328C4.97319 0.361328 3.18604 2.15099 3.18604 4.35871C3.18604 6.56639 4.97319 8.3561 7.17781 8.3561Z" fill="#C679F6"/>
</svg>
