<svg width="17" height="20" viewBox="0 0 17 20" fill="none" xmlns="http://www.w3.org/2000/svg">
<path d="M16.835 2.0767C16.835 0.929959 15.8205 0 14.5696 0H3.10033C1.8495 0 0.834961 0.929959 0.834961 2.0767V17.9234C0.834961 19.07 1.84946 20 3.10033 20H14.5696C15.8204 20 16.835 19.07 16.835 17.9233V2.0767ZM4.65467 17.4477C3.82188 17.4477 3.14631 16.8277 3.14631 16.065C3.14631 15.3011 3.82262 14.6817 4.65467 14.6817C5.48808 14.6817 6.16303 15.301 6.16303 16.065C6.16303 16.8277 5.48746 17.4477 4.65467 17.4477ZM4.65467 13.5656C3.82188 13.5656 3.14631 12.9463 3.14631 12.1836C3.14631 11.4197 3.82262 10.8003 4.65467 10.8003C5.48808 10.8003 6.16303 11.4195 6.16303 12.1836C6.16303 12.9463 5.48746 13.5656 4.65467 13.5656ZM4.65467 9.68309C3.82188 9.68309 3.14631 9.06438 3.14631 8.30113C3.14631 7.53774 3.82262 6.91778 4.65467 6.91778C5.48808 6.91778 6.16303 7.53774 6.16303 8.30113C6.16303 9.06452 5.48746 9.68309 4.65467 9.68309ZM8.88892 17.4477C8.05551 17.4477 7.38134 16.8277 7.38134 16.065C7.38134 15.3011 8.05629 14.6817 8.88892 14.6817C9.72171 14.6817 10.398 15.301 10.398 16.065C10.3979 16.8277 9.72229 17.4477 8.88892 17.4477ZM8.88892 13.5656C8.05551 13.5656 7.38134 12.9463 7.38134 12.1836C7.38134 11.4197 8.05629 10.8003 8.88892 10.8003C9.72171 10.8003 10.398 11.4195 10.398 12.1836C10.3979 12.9463 9.72229 13.5656 8.88892 13.5656ZM8.88892 9.68309C8.05551 9.68309 7.38134 9.06438 7.38134 8.30113C7.38134 7.53774 8.05629 6.91778 8.88892 6.91778C9.72171 6.91778 10.398 7.53774 10.398 8.30113C10.3979 9.06452 9.72229 9.68309 8.88892 9.68309ZM13.124 17.4477C12.2905 17.4477 11.6164 16.8277 11.6164 16.065C11.6164 15.3011 12.2906 14.6817 13.124 14.6817C13.9573 14.6817 14.6331 15.301 14.6331 16.065C14.6337 16.8277 13.9573 17.4477 13.124 17.4477ZM13.124 13.5656C12.2905 13.5656 11.6164 12.9463 11.6164 12.1836C11.6164 11.4197 12.2906 10.8003 13.124 10.8003C13.9573 10.8003 14.6331 11.4195 14.6331 12.1836C14.6337 12.9463 13.9573 13.5656 13.124 13.5656ZM13.124 9.68309C12.2905 9.68309 11.6164 9.06438 11.6164 8.30113C11.6164 7.53774 12.2906 6.91778 13.124 6.91778C13.9573 6.91778 14.6331 7.53774 14.6331 8.30113C14.6331 9.06452 13.9573 9.68309 13.124 9.68309ZM14.6533 4.38669C14.6533 4.9093 14.1908 5.33326 13.6213 5.33326H4.04906C3.47958 5.33326 3.01707 4.9093 3.01707 4.38669V2.9467C3.01707 2.42395 3.47958 1.99999 4.04906 1.99999H13.6213C14.1907 1.99999 14.6532 2.42395 14.6532 2.9467L14.6533 4.38669Z" fill="#7F7F7F"/>
</svg>
