<svg width="18" height="18" viewBox="0 0 18 18" fill="none" xmlns="http://www.w3.org/2000/svg">
<path d="M12.4719 0.308838H15.4147C16.6335 0.308838 17.621 1.30472 17.621 2.53375V5.50142C17.621 6.73045 16.6335 7.72633 15.4147 7.72633H12.4719C11.2532 7.72633 10.2656 6.73045 10.2656 5.50142V2.53375C10.2656 1.30472 11.2532 0.308838 12.4719 0.308838Z" fill="white"/>
<path fill-rule="evenodd" clip-rule="evenodd" d="M2.44456 0.308716H5.38738C6.60612 0.308716 7.59366 1.3046 7.59366 2.53363V5.5013C7.59366 6.73033 6.60612 7.72621 5.38738 7.72621H2.44456C1.22582 7.72621 0.238281 6.73033 0.238281 5.5013V2.53363C0.238281 1.3046 1.22582 0.308716 2.44456 0.308716ZM2.44476 10.2739H5.38757C6.60631 10.2739 7.59385 11.2698 7.59385 12.4988V15.4665C7.59385 16.6947 6.60631 17.6914 5.38757 17.6914H2.44476C1.22602 17.6914 0.238473 16.6947 0.238473 15.4665V12.4988C0.238473 11.2698 1.22602 10.2739 2.44476 10.2739ZM15.4148 10.2739H12.4719C11.2532 10.2739 10.2657 11.2698 10.2657 12.4988V15.4665C10.2657 16.6947 11.2532 17.6914 12.4719 17.6914H15.4148C16.6335 17.6914 17.621 16.6947 17.621 15.4665V12.4988C17.621 11.2698 16.6335 10.2739 15.4148 10.2739Z" fill="white"/>
</svg>
