<svg width="45" height="57" viewBox="0 0 45 57" fill="none" xmlns="http://www.w3.org/2000/svg">
<path d="M21.9571 30.15C19.6047 30.15 17.8241 29.5365 16.6131 28.3093C15.4032 27.0822 14.7988 25.2756 14.7988 22.8895V12.8679C14.7988 12.5441 14.8919 12.2884 15.0792 12.1009C15.2676 11.8965 15.5232 11.7942 15.8461 11.7942C16.1534 11.7942 16.4001 11.8965 16.5884 12.1009C16.7757 12.2884 16.8687 12.5441 16.8687 12.8679V23.0685C16.8687 24.824 17.2948 26.1448 18.147 27.0311C19.0171 27.9173 20.2864 28.3604 21.9571 28.3604C23.6267 28.3604 24.8882 27.9173 25.7404 27.0311C26.5925 26.1448 27.0186 24.824 27.0186 23.0685V12.8679C27.0186 12.5441 27.1128 12.2884 27.3 12.1009C27.5041 11.8965 27.7598 11.7942 28.067 11.7942C28.3911 11.7942 28.6467 11.8965 28.834 12.1009C29.0212 12.2884 29.1154 12.5441 29.1154 12.8679V22.8895C29.1154 25.2585 28.501 27.0652 27.2743 28.3093C26.0644 29.5365 24.2917 30.15 21.9571 30.15Z" fill="#C679F6"/>
<path d="M28.8157 11.5835L25.0023 10.2758C24.5761 10.1296 24.1332 10.5636 24.1758 11.0123C24.4024 13.4399 23.6343 18.8519 23.0938 22.3628C23.0266 22.7968 23.5457 23.0447 23.8272 22.7077C27.1203 18.768 28.7294 14.0716 29.1039 12.0626C29.1431 11.8529 29.0175 11.6526 28.8157 11.5835Z" fill="#A141DD"/>
<path d="M14.7301 12.2142C16.2842 20.5463 20.1818 25.5536 22.8639 27.8011C23.2238 28.1022 23.651 27.6931 23.4335 27.2778C21.1584 22.9391 18.7241 15.2238 19.814 10.766C19.9082 10.3811 19.5248 9.99701 19.1547 10.1379L15.0104 11.7147C14.8097 11.7912 14.6909 12.0026 14.7301 12.2142Z" fill="#A141DD"/>
<path d="M21.8512 8.05849C24.0557 8.05849 25.8429 6.26878 25.8429 4.06111C25.8429 1.85338 24.0557 0.0637207 21.8512 0.0637207C19.6465 0.0637207 17.8594 1.85338 17.8594 4.06111C17.8594 6.26878 19.6465 8.05849 21.8512 8.05849Z" fill="#C679F6"/>
<path d="M21.2639 43.1209C21.1663 43.8151 20.9602 44.4439 20.6457 45.008C20.3312 45.5611 19.9353 46.0328 19.4581 46.4234C18.9917 46.8136 18.4603 47.1172 17.8638 47.3344C17.2781 47.5407 16.6545 47.6436 15.9929 47.6436C15.3313 47.6436 14.7294 47.5407 14.1871 47.3344C13.6557 47.1172 13.211 46.8136 12.8531 46.4234C12.4952 46.0328 12.2349 45.5611 12.0722 45.008C11.9204 44.4439 11.8933 43.8151 11.9909 43.1209L13.0158 35.8326H15.0656L14.057 43.0558C14.0136 43.3378 14.0136 43.636 14.057 43.9503C14.1004 44.254 14.2034 44.5363 14.3661 44.7967C14.5288 45.0567 14.762 45.2739 15.0656 45.4473C15.3801 45.6098 15.7814 45.6913 16.2695 45.6913C16.7575 45.6913 17.1805 45.6098 17.5384 45.4473C17.8963 45.2739 18.1892 45.0567 18.4169 44.7967C18.6555 44.5363 18.8399 44.254 18.9701 43.9503C19.1002 43.636 19.187 43.3378 19.2303 43.0558L20.239 35.8326H22.2888L21.2639 43.1209ZM31.3614 38.5332C30.9926 38.0777 30.6239 37.774 30.2551 37.6222C29.8864 37.4703 29.5013 37.3944 29.1 37.3944C28.5035 37.3944 27.945 37.5029 27.4244 37.7198C26.9147 37.9259 26.4592 38.2187 26.0578 38.5982C25.6565 38.967 25.3258 39.4009 25.0655 39.8998C24.8052 40.3986 24.6371 40.9355 24.5612 41.5103C24.4744 42.1285 24.4853 42.6979 24.5937 43.2185C24.713 43.7391 24.919 44.1894 25.2119 44.5686C25.5047 44.9483 25.8789 45.2465 26.3344 45.4637C26.7899 45.6804 27.3159 45.7888 27.9125 45.7888C28.3788 45.7888 28.8452 45.6804 29.3115 45.4637C29.7779 45.2356 30.2388 44.8777 30.6943 44.3897L32.2236 45.5934C31.5946 46.3096 30.8841 46.83 30.0924 47.1555C29.3007 47.481 28.4819 47.6436 27.6359 47.6436C26.7465 47.6436 25.9494 47.5024 25.2444 47.2206C24.5395 46.9279 23.9538 46.5208 23.4874 46.0005C23.0319 45.4692 22.7011 44.8345 22.4951 44.0969C22.2998 43.3595 22.2673 42.5406 22.3974 41.6405C22.5276 40.7186 22.7933 39.8834 23.1946 39.1351C23.6068 38.3759 24.1165 37.7306 24.7238 37.1992C25.342 36.6677 26.0416 36.261 26.8225 35.979C27.6142 35.6862 28.4547 35.5398 29.3441 35.5398C30.125 35.5398 30.8245 35.6808 31.4427 35.9628C32.0717 36.2339 32.6303 36.7003 33.1183 37.3619L31.3614 38.5332ZM32.5582 41.6405C32.6884 40.7186 32.9541 39.8834 33.3554 39.1351C33.7675 38.3759 34.2772 37.7306 34.8846 37.1992C35.5028 36.6677 36.2023 36.261 36.9832 35.979C37.7749 35.6862 38.6155 35.5398 39.5048 35.5398C40.405 35.529 41.2076 35.6645 41.9126 35.9465C42.6283 36.2176 43.2194 36.6189 43.6858 37.1504C44.1522 37.6818 44.483 38.3217 44.6782 39.0701C44.8734 39.8184 44.906 40.6535 44.7758 41.5754C44.6456 42.4756 44.3799 43.2944 43.9786 44.0318C43.5774 44.7694 43.0676 45.4041 42.4494 45.9354C41.8312 46.4667 41.1262 46.8841 40.3345 47.1878C39.5428 47.481 38.6968 47.6326 37.7967 47.6436C36.9073 47.6436 36.1101 47.5024 35.4052 47.2206C34.7002 46.9279 34.1146 46.5208 33.6482 46.0005C33.1927 45.4692 32.8619 44.8345 32.6559 44.0969C32.4606 43.3595 32.4281 42.5406 32.5582 41.6405ZM34.7219 41.5103C34.6352 42.1285 34.646 42.6979 34.7545 43.2185C34.8737 43.7391 35.0798 44.1894 35.3727 44.5686C35.6655 44.9483 36.0397 45.2465 36.4952 45.4637C36.9507 45.6804 37.4767 45.7888 38.0732 45.7888C38.6697 45.7888 39.2283 45.6804 39.7488 45.4637C40.2695 45.2465 40.7304 44.9483 41.1317 44.5686C41.5329 44.1894 41.8638 43.7391 42.124 43.2185C42.3844 42.6979 42.5579 42.1285 42.6446 41.5103C42.7205 40.9355 42.6989 40.3986 42.5795 39.8998C42.4711 39.4009 42.2704 38.967 41.9776 38.5982C41.6848 38.2187 41.3052 37.9259 40.8388 37.7198C40.3833 37.5029 39.8573 37.3944 39.2608 37.3944C38.6643 37.3944 38.1058 37.5029 37.5851 37.7198C37.0754 37.9259 36.6199 38.2187 36.2186 38.5982C35.8173 38.967 35.4865 39.4009 35.2263 39.8998C34.9659 40.3986 34.7978 40.9355 34.7219 41.5103Z" fill="#A141DD"/>
<path d="M1.28173 55.975H0.65625V50.6511H1.28173V55.975ZM10.7264 55.975H10.5373L7.1626 52.1133V55.975H6.52256V50.6511H6.71167L10.1082 54.564V50.6511H10.7264V55.975ZM18.0957 51.822C17.9017 51.5606 17.7369 51.3857 17.6011 51.2987C17.4653 51.2063 17.3054 51.1605 17.1211 51.1605C16.9417 51.1605 16.789 51.2187 16.6629 51.335C16.5417 51.4513 16.4811 51.6019 16.4811 51.7858C16.4811 51.9652 16.5392 52.1227 16.6556 52.2589C16.772 52.3946 17.0387 52.6172 17.4557 52.9279C17.8775 53.233 18.1854 53.5218 18.3793 53.7932C18.5733 54.065 18.6702 54.3508 18.6702 54.6515C18.6702 55.0441 18.5175 55.3861 18.212 55.6768C17.9114 55.9631 17.5599 56.1062 17.1574 56.1062C16.4495 56.1062 15.8944 55.7111 15.4919 54.9204L16.0228 54.6152C16.338 55.2017 16.692 55.4954 17.0847 55.4954C17.3369 55.4954 17.5526 55.4154 17.732 55.2553C17.9114 55.0953 18.0011 54.9084 18.0011 54.6952C18.0011 54.482 17.926 54.2807 17.7757 54.0914C17.6253 53.8975 17.3659 53.6624 16.9975 53.3861C16.6289 53.1048 16.3744 52.8916 16.2338 52.746C16.098 52.6003 15.9986 52.4453 15.9356 52.2803C15.8725 52.1158 15.841 51.9508 15.841 51.7858C15.841 51.4319 15.9623 51.1337 16.2047 50.8912C16.452 50.6441 16.7695 50.5204 17.1574 50.5204C17.4581 50.5204 17.7199 50.5979 17.9429 50.753C18.166 50.9036 18.3842 51.1287 18.5975 51.4294L18.0957 51.822ZM27.391 53.8513C27.391 54.3896 27.3352 54.8041 27.2237 55.0953C27.117 55.3811 26.923 55.6211 26.6418 55.815C26.3654 56.0093 26.0406 56.1062 25.6673 56.1062C25.3715 56.1062 25.1048 56.06 24.8672 55.968C24.6296 55.8711 24.4308 55.7374 24.2708 55.568C24.1157 55.3935 24.0041 55.2017 23.9362 54.9934C23.8684 54.7802 23.8344 54.3995 23.8344 53.8513V50.6511H24.4599V53.8513C24.4599 54.1957 24.4696 54.4452 24.489 54.6008C24.5084 54.7509 24.5642 54.899 24.6563 55.0441C24.7484 55.1848 24.8793 55.2986 25.049 55.3861C25.2236 55.4686 25.4199 55.5098 25.6381 55.5098C25.8999 55.5098 26.1254 55.4348 26.3146 55.2842C26.5085 55.1291 26.6321 54.9522 26.6855 54.7534C26.7437 54.5496 26.7727 54.2489 26.7727 53.8513V50.6511H27.391V53.8513ZM36.2588 55.975H35.4733L33.5968 53.5461H33.3786V55.975H32.7531V50.6511H33.8441C34.426 50.6511 34.826 50.6779 35.0442 50.7311C35.2624 50.7798 35.4515 50.8648 35.6115 50.9861C35.7714 51.1069 35.8975 51.2649 35.9897 51.4587C36.0818 51.6476 36.1278 51.8588 36.1278 52.0914C36.1278 52.5328 35.9776 52.8866 35.6769 53.153C35.3763 53.4149 34.9423 53.5461 34.3751 53.5461L36.2588 55.975ZM33.3786 52.9348H34.2296C34.6563 52.9398 34.9714 52.8767 35.1751 52.746C35.3787 52.6103 35.4805 52.3971 35.4805 52.1058C35.4805 51.8101 35.3811 51.5969 35.1823 51.4657C34.9835 51.33 34.6732 51.2624 34.2514 51.2624H33.3786V52.9348ZM44.3931 51.2694H41.9202V52.7967H44.3713V53.408H41.9202V55.3567H44.3713V55.975H41.2947V50.6511H44.3931V51.2694Z" fill="#2E2E2E"/>
<path fill-rule="evenodd" clip-rule="evenodd" d="M6.29597 36.1815H1.75706L1.46796 38.249C2.84113 37.9345 4.21511 37.6189 5.58997 37.3024C5.65563 37.2843 5.72824 37.2949 5.78594 37.331C7.05504 38.0554 8.32489 38.7755 9.59528 39.4914C9.66058 39.5171 9.69627 39.5805 9.67892 39.6401C9.624 39.9963 9.57227 40.3537 9.52048 40.7112C9.45582 41.1579 9.39116 41.6047 9.32024 42.0498L9.32009 42.0499C9.27938 42.3128 9.21651 42.5719 9.13192 42.8251C8.86051 43.6305 8.36803 44.3582 7.69677 44.9457C6.83835 45.7011 5.81258 46.1822 4.57976 46.3209C4.44636 46.3383 4.3086 46.3179 4.18574 46.2633C3.13216 45.8159 2.2551 45.0903 1.68247 44.1912C1.28737 43.6039 1.02393 42.964 0.900504 42.3071L0.146484 47.6996H4.44135C5.13546 47.6996 5.85671 47.5858 6.60505 47.3581C7.36423 47.1191 8.06918 46.7667 8.71995 46.3005C9.37068 45.8234 9.93463 45.227 10.4119 44.5108C10.8891 43.7842 11.1982 42.9275 11.3392 41.9405C11.4802 40.9644 11.4368 40.1184 11.209 39.4027C10.9812 38.676 10.6287 38.0741 10.1516 37.5968C9.68519 37.1197 9.11582 36.7672 8.44337 36.5394C7.77092 36.3008 7.05514 36.1815 6.29597 36.1815Z" fill="#A141DD"/>
</svg>
