<svg viewBox="0 0 1186 176" fill="none" xmlns="http://www.w3.org/2000/svg">
<g id="Graphic Side">
<g clip-path="url(#clip0_1450_3208)">
<path d="M0 0H1186V165.777C1186 171.423 1181.42 176 1175.78 176H10.2234C4.57723 176 0 171.423 0 165.777V0Z" fill="url(#paint0_radial_1450_3208)"/>
<g id="Big Circles">
<g id="Ellipse 5" style="mix-blend-mode:multiply" opacity="0.75" filter="url(#filter0_i_1450_3208)">
<path d="M636.294 1140.69C255.882 1140.69 -52.5037 838.514 -52.5037 465.756C-52.5037 92.9993 284.15 -230.797 664.562 -230.797C1044.97 -230.797 1353.36 71.3821 1353.36 444.139C1353.36 816.896 1016.71 1140.69 636.294 1140.69Z" fill="white"/>
</g>
<g id="Ellipse 4" style="mix-blend-mode:multiply" opacity="0.75" filter="url(#filter1_i_1450_3208)">
<ellipse cx="414.822" cy="532.466" rx="522.469" ry="533.635" transform="rotate(90 414.822 532.466)" fill="white"/>
</g>
<g id="Ellipse 3" style="mix-blend-mode:multiply" opacity="0.75" filter="url(#filter2_i_1450_3208)">
<ellipse cx="416.662" cy="535.369" rx="443.926" ry="453.166" transform="rotate(90 416.662 535.369)" fill="white"/>
</g>
</g>
<path id="Welcome Back!" d="M46.1543 53.7944L42.5215 68.0718H39.0742L37.1406 60.5718C37.1016 60.4285 37.0495 60.2104 36.9844 59.9175C36.9193 59.6245 36.8509 59.3055 36.7793 58.9604C36.7077 58.6089 36.6426 58.2801 36.584 57.9741C36.5319 57.6616 36.4961 57.4142 36.4766 57.2319C36.457 57.4142 36.418 57.6584 36.3594 57.9644C36.3073 58.2703 36.2454 58.5959 36.1738 58.9409C36.1087 59.286 36.0436 59.6082 35.9785 59.9077C35.9134 60.2072 35.8613 60.4351 35.8223 60.5913L33.8984 68.0718H30.4609L26.8184 53.7944H29.7969L31.623 61.5874C31.6751 61.8218 31.7337 62.1017 31.7988 62.4272C31.8704 62.7528 31.9388 63.0946 32.0039 63.4526C32.0755 63.8042 32.1374 64.146 32.1895 64.478C32.248 64.8035 32.2904 65.0868 32.3164 65.3276C32.349 65.0802 32.3913 64.7938 32.4434 64.4683C32.4954 64.1362 32.5508 63.8009 32.6094 63.4624C32.6745 63.1174 32.7396 62.7983 32.8047 62.5054C32.8698 62.2124 32.9284 61.9748 32.9805 61.7925L35.0605 53.7944H37.9219L40.002 61.7925C40.0475 61.9683 40.0996 62.2059 40.1582 62.5054C40.2233 62.7983 40.2884 63.1174 40.3535 63.4624C40.4186 63.8075 40.4772 64.146 40.5293 64.478C40.5879 64.8035 40.6302 65.0868 40.6562 65.3276C40.7018 65.0021 40.7637 64.6082 40.8418 64.146C40.9264 63.6772 41.0143 63.2118 41.1055 62.7495C41.2031 62.2873 41.2878 61.8999 41.3594 61.5874L43.1758 53.7944H46.1543ZM52.2188 56.9487C53.2279 56.9487 54.097 57.144 54.8262 57.5347C55.5553 57.9188 56.1185 58.4787 56.5156 59.2144C56.9128 59.95 57.1113 60.8485 57.1113 61.9097V63.355H50.0703C50.1029 64.1948 50.3535 64.8556 50.8223 65.3374C51.2975 65.8127 51.9551 66.0503 52.7949 66.0503C53.4915 66.0503 54.1296 65.9787 54.709 65.8354C55.2884 65.6922 55.8841 65.4774 56.4961 65.1909V67.4956C55.9557 67.7625 55.3893 67.9578 54.7969 68.0815C54.2109 68.2052 53.498 68.2671 52.6582 68.2671C51.5645 68.2671 50.5944 68.0653 49.748 67.6616C48.9082 67.258 48.2474 66.6427 47.7656 65.8159C47.2904 64.9891 47.0527 63.9474 47.0527 62.6909C47.0527 61.4149 47.2676 60.3537 47.6973 59.5073C48.1335 58.6545 48.7389 58.0164 49.5137 57.5933C50.2884 57.1636 51.1901 56.9487 52.2188 56.9487ZM52.2383 59.0679C51.6589 59.0679 51.1771 59.2534 50.793 59.6245C50.4154 59.9956 50.1973 60.5783 50.1387 61.3726H54.3184C54.3118 60.9299 54.2305 60.536 54.0742 60.1909C53.9245 59.8459 53.6966 59.5724 53.3906 59.3706C53.0911 59.1688 52.707 59.0679 52.2383 59.0679ZM62.5117 68.0718H59.5332V52.8765H62.5117V68.0718ZM70.0801 68.2671C68.9993 68.2671 68.0781 68.0718 67.3164 67.6812C66.5547 67.284 65.9753 66.672 65.5781 65.8452C65.181 65.0184 64.9824 63.9604 64.9824 62.6714C64.9824 61.3368 65.207 60.2495 65.6562 59.4097C66.112 58.5633 66.7402 57.9416 67.541 57.5444C68.3483 57.1473 69.2826 56.9487 70.3438 56.9487C71.099 56.9487 71.75 57.0236 72.2969 57.1733C72.8503 57.3166 73.332 57.4891 73.7422 57.6909L72.8633 59.9956C72.3945 59.8068 71.9583 59.6538 71.5547 59.5366C71.151 59.4129 70.7474 59.3511 70.3438 59.3511C69.8229 59.3511 69.39 59.4748 69.0449 59.7222C68.6999 59.9631 68.4427 60.3276 68.2734 60.8159C68.1042 61.3042 68.0195 61.9162 68.0195 62.6519C68.0195 63.3745 68.1107 63.9735 68.293 64.4487C68.4753 64.924 68.7389 65.2788 69.084 65.5132C69.429 65.741 69.849 65.855 70.3438 65.855C70.9622 65.855 71.5124 65.7736 71.9941 65.6108C72.4759 65.4416 72.9447 65.2072 73.4004 64.9077V67.4565C72.9447 67.743 72.4661 67.9481 71.9648 68.0718C71.4701 68.202 70.8418 68.2671 70.0801 68.2671ZM85.8613 62.5933C85.8613 63.5047 85.7376 64.312 85.4902 65.0151C85.2493 65.7183 84.8945 66.314 84.4258 66.8022C83.9635 67.284 83.4036 67.6486 82.7461 67.896C82.0951 68.1434 81.3594 68.2671 80.5391 68.2671C79.7708 68.2671 79.0645 68.1434 78.4199 67.896C77.7819 67.6486 77.2253 67.284 76.75 66.8022C76.2812 66.314 75.9167 65.7183 75.6562 65.0151C75.4023 64.312 75.2754 63.5047 75.2754 62.5933C75.2754 61.3823 75.4902 60.3569 75.9199 59.5171C76.3496 58.6772 76.9616 58.0392 77.7559 57.603C78.5501 57.1668 79.4974 56.9487 80.5977 56.9487C81.6198 56.9487 82.5247 57.1668 83.3125 57.603C84.1068 58.0392 84.7285 58.6772 85.1777 59.5171C85.6335 60.3569 85.8613 61.3823 85.8613 62.5933ZM78.3125 62.5933C78.3125 63.3094 78.3906 63.9116 78.5469 64.3999C78.7031 64.8882 78.9473 65.256 79.2793 65.5034C79.6113 65.7508 80.0443 65.8745 80.5781 65.8745C81.1055 65.8745 81.5319 65.7508 81.8574 65.5034C82.1895 65.256 82.4303 64.8882 82.5801 64.3999C82.7363 63.9116 82.8145 63.3094 82.8145 62.5933C82.8145 61.8706 82.7363 61.2716 82.5801 60.7964C82.4303 60.3146 82.1895 59.9533 81.8574 59.7124C81.5254 59.4715 81.0924 59.3511 80.5586 59.3511C79.7708 59.3511 79.1979 59.6213 78.8398 60.1616C78.4883 60.702 78.3125 61.5125 78.3125 62.5933ZM101.145 56.9487C102.382 56.9487 103.316 57.2677 103.947 57.9058C104.585 58.5373 104.904 59.5529 104.904 60.9526V68.0718H101.916V61.6948C101.916 60.9136 101.783 60.3244 101.516 59.9272C101.249 59.5301 100.835 59.3315 100.275 59.3315C99.4876 59.3315 98.9277 59.6147 98.5957 60.1812C98.2637 60.741 98.0977 61.5451 98.0977 62.5933V68.0718H95.1191V61.6948C95.1191 61.174 95.0605 60.7378 94.9434 60.3862C94.8262 60.0347 94.6471 59.771 94.4062 59.5952C94.1654 59.4194 93.8561 59.3315 93.4785 59.3315C92.9251 59.3315 92.4889 59.4715 92.1699 59.7515C91.8574 60.0249 91.6328 60.4318 91.4961 60.9722C91.3659 61.506 91.3008 62.1603 91.3008 62.9351V68.0718H88.3223V57.1538H90.5977L90.998 58.5503H91.1641C91.3854 58.1727 91.6621 57.8667 91.9941 57.6323C92.3327 57.3979 92.7038 57.2254 93.1074 57.1147C93.5111 57.0041 93.9212 56.9487 94.3379 56.9487C95.1387 56.9487 95.8158 57.0789 96.3691 57.3394C96.929 57.5998 97.3587 58.0034 97.6582 58.5503H97.9219C98.2474 57.9904 98.7064 57.5835 99.2988 57.3296C99.8978 57.0757 100.513 56.9487 101.145 56.9487ZM112.473 56.9487C113.482 56.9487 114.351 57.144 115.08 57.5347C115.809 57.9188 116.372 58.4787 116.77 59.2144C117.167 59.95 117.365 60.8485 117.365 61.9097V63.355H110.324C110.357 64.1948 110.607 64.8556 111.076 65.3374C111.551 65.8127 112.209 66.0503 113.049 66.0503C113.745 66.0503 114.383 65.9787 114.963 65.8354C115.542 65.6922 116.138 65.4774 116.75 65.1909V67.4956C116.21 67.7625 115.643 67.9578 115.051 68.0815C114.465 68.2052 113.752 68.2671 112.912 68.2671C111.818 68.2671 110.848 68.0653 110.002 67.6616C109.162 67.258 108.501 66.6427 108.02 65.8159C107.544 64.9891 107.307 63.9474 107.307 62.6909C107.307 61.4149 107.521 60.3537 107.951 59.5073C108.387 58.6545 108.993 58.0164 109.768 57.5933C110.542 57.1636 111.444 56.9487 112.473 56.9487ZM112.492 59.0679C111.913 59.0679 111.431 59.2534 111.047 59.6245C110.669 59.9956 110.451 60.5783 110.393 61.3726H114.572C114.566 60.9299 114.484 60.536 114.328 60.1909C114.178 59.8459 113.951 59.5724 113.645 59.3706C113.345 59.1688 112.961 59.0679 112.492 59.0679ZM125.217 53.7944H129.66C131.561 53.7944 133 54.0614 133.977 54.5952C134.953 55.1291 135.441 56.0666 135.441 57.4077C135.441 57.9481 135.354 58.4364 135.178 58.8726C135.008 59.3088 134.761 59.6668 134.436 59.9468C134.11 60.2267 133.713 60.409 133.244 60.4937V60.5913C133.719 60.689 134.149 60.8582 134.533 61.0991C134.917 61.3335 135.223 61.6785 135.451 62.1343C135.686 62.5835 135.803 63.1825 135.803 63.9312C135.803 64.797 135.591 65.5392 135.168 66.1577C134.745 66.7762 134.139 67.2515 133.352 67.5835C132.57 67.909 131.639 68.0718 130.559 68.0718H125.217V53.7944ZM128.244 59.4487H130.002C130.881 59.4487 131.49 59.312 131.828 59.0386C132.167 58.7586 132.336 58.3485 132.336 57.8081C132.336 57.2612 132.134 56.8706 131.73 56.6362C131.333 56.3953 130.702 56.2749 129.836 56.2749H128.244V59.4487ZM128.244 61.8511V65.5718H130.217C131.128 65.5718 131.763 65.396 132.121 65.0444C132.479 64.6929 132.658 64.2209 132.658 63.6284C132.658 63.2769 132.58 62.9676 132.424 62.7007C132.268 62.4338 132.004 62.2254 131.633 62.0757C131.268 61.9259 130.764 61.8511 130.119 61.8511H128.244ZM142.893 56.9292C144.357 56.9292 145.48 57.2482 146.262 57.8862C147.043 58.5243 147.434 59.4943 147.434 60.7964V68.0718H145.354L144.777 66.5874H144.699C144.387 66.978 144.068 67.297 143.742 67.5444C143.417 67.7918 143.042 67.9741 142.619 68.0913C142.196 68.2085 141.682 68.2671 141.076 68.2671C140.432 68.2671 139.852 68.1434 139.338 67.896C138.83 67.6486 138.43 67.271 138.137 66.7632C137.844 66.2489 137.697 65.5978 137.697 64.8101C137.697 63.6512 138.104 62.7983 138.918 62.2515C139.732 61.6981 140.952 61.3921 142.58 61.3335L144.475 61.2749V60.7964C144.475 60.2235 144.325 59.8035 144.025 59.5366C143.726 59.2697 143.309 59.1362 142.775 59.1362C142.248 59.1362 141.73 59.2111 141.223 59.3608C140.715 59.5106 140.207 59.6994 139.699 59.9272L138.713 57.9155C139.292 57.6095 139.94 57.3687 140.656 57.1929C141.379 57.0171 142.124 56.9292 142.893 56.9292ZM144.475 63.0132L143.322 63.0522C142.359 63.0783 141.688 63.2508 141.311 63.5698C140.939 63.8888 140.754 64.3088 140.754 64.8296C140.754 65.2853 140.887 65.6108 141.154 65.8062C141.421 65.995 141.77 66.0894 142.199 66.0894C142.837 66.0894 143.374 65.9006 143.811 65.5229C144.253 65.1453 144.475 64.6082 144.475 63.9116V63.0132ZM154.943 68.2671C153.863 68.2671 152.941 68.0718 152.18 67.6812C151.418 67.284 150.839 66.672 150.441 65.8452C150.044 65.0184 149.846 63.9604 149.846 62.6714C149.846 61.3368 150.07 60.2495 150.52 59.4097C150.975 58.5633 151.604 57.9416 152.404 57.5444C153.212 57.1473 154.146 56.9487 155.207 56.9487C155.962 56.9487 156.613 57.0236 157.16 57.1733C157.714 57.3166 158.195 57.4891 158.605 57.6909L157.727 59.9956C157.258 59.8068 156.822 59.6538 156.418 59.5366C156.014 59.4129 155.611 59.3511 155.207 59.3511C154.686 59.3511 154.253 59.4748 153.908 59.7222C153.563 59.9631 153.306 60.3276 153.137 60.8159C152.967 61.3042 152.883 61.9162 152.883 62.6519C152.883 63.3745 152.974 63.9735 153.156 64.4487C153.339 64.924 153.602 65.2788 153.947 65.5132C154.292 65.741 154.712 65.855 155.207 65.855C155.826 65.855 156.376 65.7736 156.857 65.6108C157.339 65.4416 157.808 65.2072 158.264 64.9077V67.4565C157.808 67.743 157.329 67.9481 156.828 68.0718C156.333 68.202 155.705 68.2671 154.943 68.2671ZM163.781 52.8765V59.6733C163.781 60.0835 163.765 60.4937 163.732 60.9038C163.7 61.314 163.664 61.7241 163.625 62.1343H163.664C163.866 61.8478 164.071 61.5646 164.279 61.2847C164.494 61.0047 164.722 60.7345 164.963 60.4741L168.02 57.1538H171.379L167.043 61.8901L171.643 68.0718H168.205L165.061 63.6479L163.781 64.6733V68.0718H160.803V52.8765H163.781ZM175.705 63.3354H173.322L172.824 53.7944H176.203L175.705 63.3354ZM172.785 66.6753C172.785 66.0633 172.951 65.6336 173.283 65.3862C173.622 65.1388 174.029 65.0151 174.504 65.0151C174.966 65.0151 175.363 65.1388 175.695 65.3862C176.034 65.6336 176.203 66.0633 176.203 66.6753C176.203 67.2612 176.034 67.6844 175.695 67.9448C175.363 68.2052 174.966 68.3354 174.504 68.3354C174.029 68.3354 173.622 68.2052 173.283 67.9448C172.951 67.6844 172.785 67.2612 172.785 66.6753Z" fill="white"/>
</g>
</g>
<defs>
<filter id="filter0_i_1450_3208" x="-52.5039" y="-230.797" width="1421.2" height="1391.94" filterUnits="userSpaceOnUse" color-interpolation-filters="sRGB">
<feFlood flood-opacity="0" result="BackgroundImageFix"/>
<feBlend mode="normal" in="SourceGraphic" in2="BackgroundImageFix" result="shape"/>
<feColorMatrix in="SourceAlpha" type="matrix" values="0 0 0 0 0 0 0 0 0 0 0 0 0 0 0 0 0 0 127 0" result="hardAlpha"/>
<feOffset dx="15.335" dy="20.4467"/>
<feGaussianBlur stdDeviation="58.7842"/>
<feComposite in2="hardAlpha" operator="arithmetic" k2="-1" k3="1"/>
<feColorMatrix type="matrix" values="0 0 0 0 0.0235294 0 0 0 0 0.0313726 0 0 0 0 0.34902 0 0 0 0.75 0"/>
<feBlend mode="normal" in2="shape" result="effect1_innerShadow_1450_3208"/>
</filter>
<filter id="filter1_i_1450_3208" x="-118.812" y="9.9967" width="1082.6" height="1065.39" filterUnits="userSpaceOnUse" color-interpolation-filters="sRGB">
<feFlood flood-opacity="0" result="BackgroundImageFix"/>
<feBlend mode="normal" in="SourceGraphic" in2="BackgroundImageFix" result="shape"/>
<feColorMatrix in="SourceAlpha" type="matrix" values="0 0 0 0 0 0 0 0 0 0 0 0 0 0 0 0 0 0 127 0" result="hardAlpha"/>
<feMorphology radius="15.335" operator="erode" in="SourceAlpha" result="effect1_innerShadow_1450_3208"/>
<feOffset dx="15.335" dy="20.4467"/>
<feGaussianBlur stdDeviation="58.7842"/>
<feComposite in2="hardAlpha" operator="arithmetic" k2="-1" k3="1"/>
<feColorMatrix type="matrix" values="0 0 0 0 0.0235294 0 0 0 0 0.0313726 0 0 0 0 0.34902 0 0 0 0.75 0"/>
<feBlend mode="normal" in2="shape" result="effect1_innerShadow_1450_3208"/>
</filter>
<filter id="filter2_i_1450_3208" x="-36.5039" y="91.443" width="921.667" height="908.298" filterUnits="userSpaceOnUse" color-interpolation-filters="sRGB">
<feFlood flood-opacity="0" result="BackgroundImageFix"/>
<feBlend mode="normal" in="SourceGraphic" in2="BackgroundImageFix" result="shape"/>
<feColorMatrix in="SourceAlpha" type="matrix" values="0 0 0 0 0 0 0 0 0 0 0 0 0 0 0 0 0 0 127 0" result="hardAlpha"/>
<feMorphology radius="15.335" operator="erode" in="SourceAlpha" result="effect1_innerShadow_1450_3208"/>
<feOffset dx="15.335" dy="20.4467"/>
<feGaussianBlur stdDeviation="58.7842"/>
<feComposite in2="hardAlpha" operator="arithmetic" k2="-1" k3="1"/>
<feColorMatrix type="matrix" values="0 0 0 0 0.0235294 0 0 0 0 0.0313726 0 0 0 0 0.34902 0 0 0 0.75 0"/>
<feBlend mode="normal" in2="shape" result="effect1_innerShadow_1450_3208"/>
</filter>
<radialGradient id="paint0_radial_1450_3208" cx="0" cy="0" r="1" gradientUnits="userSpaceOnUse" gradientTransform="translate(593 88) rotate(90) scale(265.63 430.334)">
<stop stop-color="#D797FF"/>
<stop offset="1" stop-color="#C679F6"/>
</radialGradient>
<clipPath id="clip0_1450_3208">
<path d="M0 0H1186V165.777C1186 171.423 1181.42 176 1175.78 176H10.2234C4.57723 176 0 171.423 0 165.777V0Z" fill="white"/>
</clipPath>
</defs>
</svg>
