<svg width="23" height="22" viewBox="0 0 23 22" fill="none" xmlns="http://www.w3.org/2000/svg">
<path d="M21.393 17.1563L16.6646 13.2746C18.6892 9.98178 18.2851 5.60586 15.4394 2.75589C12.1036 -0.57553 6.68315 -0.57553 3.34744 2.75589C1.73546 4.37227 0.845703 6.51716 0.845703 8.79972C0.845703 11.0823 1.73546 13.2272 3.35184 14.8436C5.01965 16.5072 7.20339 17.341 9.39138 17.341C10.9475 17.341 12.5035 16.9112 13.8705 16.0687L17.7522 20.7971C18.2165 21.3602 18.8957 21.7041 19.6264 21.7429H19.751C20.4345 21.7429 21.0964 21.4722 21.5823 20.9863C22.0983 20.4703 22.3732 19.7569 22.339 19.0305C22.3 18.2996 21.9559 17.6205 21.393 17.1561L21.393 17.1563ZM15.3363 13.6702C15.246 13.7821 15.1386 13.8895 15.0397 14.0012C14.9667 14.0787 14.9022 14.1559 14.8248 14.2333C14.7604 14.2978 14.6959 14.3494 14.6313 14.4096C14.5066 14.5257 14.3863 14.6418 14.2572 14.7493C14.1626 14.8267 14.0637 14.8911 13.9693 14.9642C10.9602 17.1952 6.68743 16.9588 3.96212 14.2333C2.50924 12.7804 1.70535 10.8503 1.70535 8.79988C1.70535 6.74504 2.50484 4.81508 3.95771 3.36645C5.45362 1.86634 7.42238 1.11828 9.39114 1.11828C11.3641 1.11828 13.3329 1.86613 14.8289 3.36645C17.5627 6.10031 17.7949 10.3947 15.5339 13.4037C15.4695 13.4939 15.4092 13.58 15.3362 13.6702L15.3363 13.6702Z" fill="#7F7F7F"/>
<path d="M14.0771 12.6041V8.62346C14.0771 8.38713 13.8836 8.1936 13.6473 8.1936H12.0695C11.8332 8.1936 11.6396 8.38713 11.6396 8.62346V12.6041C11.6396 12.8448 11.8332 13.0339 12.0695 13.0339H13.647C13.8836 13.0339 14.0771 12.8446 14.0771 12.6041Z" fill="#7F7F7F"/>
<path d="M6.71638 6.80957H5.13884C4.90251 6.80957 4.70898 7.00309 4.70898 7.23943V12.6041C4.70898 12.8448 4.90251 13.0339 5.13884 13.0339H6.71638C6.95271 13.0339 7.14624 12.8448 7.14624 12.6041V7.23943C7.14624 7.00288 6.95271 6.80957 6.71638 6.80957Z" fill="#7F7F7F"/>
<path d="M10.1822 4.56152H8.60466C8.36833 4.56152 8.1748 4.75505 8.1748 4.99138V12.6042C8.1748 12.845 8.36833 13.0341 8.60466 13.0341H10.1822C10.4185 13.0341 10.6121 12.845 10.6121 12.6042V4.99138C10.6121 4.75484 10.4185 4.56152 10.1822 4.56152Z" fill="#7F7F7F"/>
</svg>
