<svg width="42" height="42" viewBox="0 0 42 42" fill="none" xmlns="http://www.w3.org/2000/svg">
<rect x="0.5" y="6.5" width="35" height="35" rx="17.5" fill="#F8F8F8"/>
<rect x="0.5" y="6.5" width="35" height="35" rx="17.5" stroke="#E7E7E7"/>
<path d="M22.3492 23.0868C22.3492 20.4358 20.896 18.8452 19.1876 18.3739C19.1483 17.7652 18.6378 17.2743 18.0093 17.2743C17.3809 17.2743 16.8704 17.7652 16.831 18.3739C15.1226 18.8649 13.6695 20.4359 13.6695 23.0868C13.6695 23.0868 13.6695 25.5415 12.6091 27.1321C12.6091 27.1321 12.0789 28.1924 13.1394 28.3692H22.8597C23.92 28.1925 23.3899 27.1321 23.3899 27.1321C22.3492 25.5612 22.3492 23.0868 22.3492 23.0868Z" fill="#C679F6"/>
<path d="M18.0096 30.7256C18.9914 30.7256 19.7769 29.9402 19.7769 28.9584H16.2422C16.2422 29.9205 17.0276 30.7256 18.0095 30.7256H18.0096Z" fill="#C679F6"/>
<rect x="25.9473" y="0.497803" width="15.7478" height="15.7478" rx="7.8739" fill="#FF5353"/>
<path d="M35.3622 10.8705H31.8682V10.1354L33.1229 8.86707C33.3759 8.60725 33.5788 8.39072 33.7315 8.2175C33.8865 8.04201 33.9981 7.88246 34.0665 7.73887C34.1372 7.59528 34.1725 7.44144 34.1725 7.27734C34.1725 7.07905 34.1167 6.9309 34.005 6.83289C33.8956 6.73261 33.7486 6.68247 33.564 6.68247C33.3702 6.68247 33.1822 6.72691 32.9999 6.8158C32.8175 6.90469 32.6272 7.03118 32.4289 7.19529L31.8546 6.51495C31.9981 6.39187 32.1497 6.27563 32.3093 6.16623C32.4711 6.05683 32.658 5.96908 32.8699 5.90298C33.0842 5.83461 33.3406 5.80042 33.6392 5.80042C33.9674 5.80042 34.2488 5.85968 34.4836 5.9782C34.7206 6.09672 34.903 6.25854 35.0306 6.46367C35.1582 6.66651 35.2221 6.89671 35.2221 7.15426C35.2221 7.43004 35.1674 7.68189 35.058 7.90981C34.9486 8.13773 34.789 8.36337 34.5793 8.58673C34.3719 8.81009 34.1212 9.05739 33.8272 9.32861L33.1845 9.93374V9.9816H35.3622V10.8705Z" fill="white"/>
</svg>
