<svg width="18" height="22" viewBox="0 0 18 22" fill="none" xmlns="http://www.w3.org/2000/svg">
<path d="M8.9263 0.838188C8.87711 0.838018 8.82859 0.847349 8.78295 0.865671L0.358884 4.35547C0.20162 4.42044 0.106787 4.58212 0.126635 4.75109C0.6322 8.98123 1.71486 12.7209 3.20897 15.5851C4.70304 18.4492 6.61378 20.4601 8.81706 21.1449C8.89017 21.1675 8.96821 21.1675 9.04133 21.1449C11.2445 20.4598 13.1517 18.4493 14.6459 15.5851C16.1401 12.7209 17.2264 8.98114 17.732 4.75109C17.7517 4.58195 17.6565 4.42027 17.4989 4.35547L9.07485 0.865671C9.02769 0.84667 8.97703 0.83734 8.9263 0.838188ZM8.93377 5.42741C9.07712 5.42894 9.20724 5.51071 9.27069 5.63896L10.4738 8.0712L13.1636 8.4624C13.307 8.4831 13.4259 8.58302 13.4707 8.72027C13.5156 8.85769 13.4785 9.0085 13.375 9.10944L11.4274 11.0029L11.8861 13.677C11.9104 13.8194 11.8517 13.9631 11.7348 14.0479C11.6177 14.1327 11.4629 14.1441 11.3346 14.0771L8.92833 12.8139L6.52054 14.0771C6.39229 14.1442 6.23689 14.1329 6.11983 14.0475C6.00278 13.9624 5.94442 13.818 5.96936 13.6755L6.43097 11.0029L4.48341 9.10809C4.37993 9.00715 4.34277 8.85633 4.38739 8.71909C4.43218 8.58184 4.5511 8.48175 4.69411 8.46088L7.38454 8.07052L8.58837 5.63898C8.6296 5.55585 8.7 5.49071 8.78601 5.45559C8.83283 5.43659 8.88321 5.4269 8.93377 5.42741Z" fill="#7F7F7F"/>
</svg>
