<svg width="37" height="36" viewBox="0 0 37 36" fill="none" xmlns="http://www.w3.org/2000/svg">
<rect x="0.982422" y="0.5" width="35" height="35" rx="17.5" fill="#F8F8F8"/>
<rect x="0.982422" y="0.5" width="35" height="35" rx="17.5" stroke="#E7E7E7"/>
<g clip-path="url(#clip0_1450_3133)">
<path d="M19.2054 11.288C19.4027 11.288 19.5792 11.4108 19.6457 11.5947L20.1196 12.9083C20.2894 12.9505 20.435 12.9928 20.5585 13.0371C20.6934 13.0854 20.8673 13.1586 21.0821 13.2586L22.1855 12.6747C22.2756 12.627 22.3787 12.6097 22.4794 12.6256C22.5801 12.6414 22.6729 12.6895 22.744 12.7626L23.7145 13.766C23.8434 13.8996 23.8796 14.0949 23.8071 14.2654L23.2896 15.4783C23.3756 15.636 23.444 15.7709 23.4964 15.8837C23.5528 16.0065 23.6226 16.1757 23.7058 16.3938L24.9119 16.9106C25.0932 16.9878 25.2053 17.1691 25.1932 17.363L25.1046 18.7558C25.0985 18.8463 25.066 18.933 25.0112 19.0052C24.9563 19.0773 24.8814 19.1318 24.7958 19.1619L23.6534 19.5679C23.6205 19.7257 23.5863 19.8606 23.5501 19.9747C23.4916 20.1509 23.4249 20.3243 23.3501 20.4942L23.9239 21.7628C23.9644 21.8519 23.9753 21.9517 23.9551 22.0474C23.9348 22.1432 23.8843 22.23 23.8112 22.295L22.7198 23.2696C22.6479 23.3335 22.5582 23.374 22.4627 23.3855C22.3673 23.397 22.2705 23.379 22.1855 23.3341L21.0606 22.738C20.8846 22.8312 20.703 22.9135 20.5169 22.9844L20.0256 23.1683L19.5893 24.3764C19.557 24.4649 19.4986 24.5415 19.422 24.5963C19.3453 24.651 19.2539 24.6813 19.1597 24.6832L17.8844 24.712C17.7878 24.7146 17.6927 24.6871 17.6123 24.6334C17.5318 24.5796 17.4701 24.5023 17.4354 24.412L16.9213 23.0515C16.7458 22.9915 16.5722 22.9266 16.4004 22.8568C16.2599 22.796 16.1216 22.7304 15.9856 22.6602L14.7103 23.2052C14.6263 23.241 14.5337 23.2517 14.4437 23.2358C14.3537 23.22 14.2703 23.1783 14.2036 23.1159L13.2598 22.2306C13.1896 22.165 13.1417 22.0789 13.1231 21.9846C13.1044 21.8903 13.1159 21.7925 13.1558 21.705L13.7042 20.5103C13.6313 20.3688 13.5636 20.2246 13.5015 20.078C13.4289 19.8987 13.3618 19.7171 13.3001 19.5337L12.0987 19.1679C12.001 19.1384 11.9158 19.0774 11.8564 18.9945C11.7969 18.9116 11.7664 18.8114 11.7698 18.7095L11.8168 17.4201C11.8201 17.336 11.8464 17.2543 11.8928 17.1841C11.9391 17.1138 12.0038 17.0575 12.0799 17.0214L13.3404 16.416C13.3988 16.2018 13.4498 16.0354 13.4948 15.9139C13.5581 15.7516 13.6284 15.5922 13.7055 15.436L13.1592 14.2815C13.1177 14.1939 13.1051 14.0953 13.1232 14C13.1413 13.9047 13.1891 13.8177 13.2598 13.7513L14.2022 12.8613C14.2683 12.799 14.3509 12.7571 14.4402 12.7406C14.5296 12.7242 14.6217 12.7339 14.7056 12.7686L15.9796 13.2949C16.1205 13.2009 16.248 13.125 16.3635 13.064C16.5011 12.9908 16.685 12.9143 16.9166 12.8317L17.3596 11.596C17.3923 11.5056 17.4522 11.4275 17.531 11.3724C17.6098 11.3172 17.7037 11.2877 17.7999 11.288H19.2054ZM18.4979 15.9991C17.379 15.9991 16.4722 16.8952 16.4722 18.0013C16.4722 19.1075 17.379 20.0042 18.4979 20.0042C19.6161 20.0042 20.5229 19.1075 20.5229 18.0013C20.5229 16.8952 19.6168 15.9991 18.4979 15.9991Z" fill="#C679F6"/>
</g>
<defs>
<clipPath id="clip0_1450_3133">
<rect width="13.4241" height="13.4241" fill="white" transform="translate(11.7695 11.288)"/>
</clipPath>
</defs>
</svg>
